<svg width="390" height="271" viewBox="0 0 390 271" fill="none" xmlns="http://www.w3.org/2000/svg">
<g clip-path="url(#clip0_1177_20676)">
<path d="M-30.9472 180.144C-30.9472 153.315 -32.5998 130.001 -17.4138 106.462C-4.54445 86.5148 7.75121 70.9427 29.9532 62.4035C82.2756 42.2795 120.627 94.9851 120.627 142.401C120.627 166.969 118.133 187.905 98.8233 206.008C88.394 215.786 81.0155 226.92 68.5986 234.278C64.7077 236.584 47.214 239.967 42.7348 236.383C27.9066 224.521 39.6918 198.316 48.9 187.061C63.1368 169.661 74.4242 157.743 97.4699 152.476C113.947 148.71 127.78 147.664 144.987 147.664C165.585 147.664 184.935 155.784 205.888 155.784C235.137 155.784 272.677 163.429 295.208 140.897C303.494 132.612 315.312 121.96 318.365 111.274C322.097 98.213 332.176 81.0099 345.282 75.185C370.192 64.1138 397.582 71.8769 423.776 71.8769" stroke="white" stroke-opacity="0.07" stroke-width="3" stroke-linecap="round"/>
</g>
<defs>
<clipPath id="clip0_1177_20676">
<rect width="390" height="271" fill="white"/>
</clipPath>
</defs>
</svg>
